<svg aria-hidden="true" style="position: absolute; width: 0; height: 0; overflow: hidden;" version="1.1" xmlns="http://www.w3.org/2000/svg" xmlns:xlink="http://www.w3.org/1999/xlink">
<defs>
<symbol id="icon-icon-send" viewBox="0 0 32 32">
<path fill="#fff" style="fill: var(--color1, #fff)" d="M32 0l-32 18 10.267 3.733 15.733-14.667-12 16v8.933l5.733-6.667 7.333 2.667 4.933-28z"></path>
</symbol>
<symbol id="icon-Vector1" viewBox="0 0 32 32">
<path d="M16 16c4.418 0 8-3.582 8-8s-3.582-8-8-8v0c-4.418 0-8 3.582-8 8s3.582 8 8 8v0zM16 20c-5.333 0-16 2.667-16 8v2.133c0 1.067 0.8 1.867 2.133 1.867h27.733c1.333 0 2.133-0.8 2.133-2.133v-1.867c0-5.333-10.667-8-16-8z"></path>
</symbol>
<symbol id="icon-Vector2" viewBox="0 0 32 32">
<path d="M27.429 20.8l-4.114-0.229c-1.143 0-2.286 0.229-2.743 0.914l-3.2 3.2c-4.571-2.514-8.229-6.629-10.514-11.2l2.971-3.2c0.686-0.686 1.143-1.6 0.914-2.514l-0.457-4.343c-0.229-1.6-1.829-2.743-3.429-2.743h-2.971c-1.6 0-3.429 1.371-3.2 3.429 0.914 13.943 12.114 25.143 26.286 26.286 1.829 0 3.429-1.6 3.429-3.429v-2.743c0-1.829-1.371-3.2-2.971-3.429z"></path>
</symbol>
<symbol id="icon-Vector3" viewBox="0 0 32 32">
<path d="M28 4h-24c-1.6 0-3 1.4-3 3v18c0 1.6 1.4 3 3 3h24c1.6 0 3-1.4 3-3v-18c0-1.6-1.4-3-3-3zM27.4 10.4l-10.6 6.6c-0.4 0.4-1.2 0.4-1.6 0l-10.6-6.6c-0.316-0.224-0.521-0.588-0.521-1 0-0.674 0.546-1.221 1.221-1.221 0.262 0 0.505 0.083 0.704 0.223l-0.004-0.003 10 6 10-6c0.195-0.138 0.438-0.221 0.7-0.221 0.674 0 1.221 0.546 1.221 1.221 0 0.412-0.204 0.776-0.517 0.997l-0.004 0.003z"></path>
</symbol>
<symbol id="icon-Vector4" viewBox="0 0 32 32">
<path d="M28.4 4.4v23.2h-24.8v-23.2h24.8zM28.4 1h-24.8c-2 0-3.6 1.6-3.6 3.4v23.2c0 2 1.6 3.4 3.6 3.4h24.8c2 0 3.6-1.6 3.6-3.4v-23.2c0-2-1.6-3.4-3.6-3.4z"></path>
</symbol>
</defs>
</svg>
